<?xml version="1.0" encoding="UTF-8"?>
<svg width="347px" height="50px" viewBox="0 0 347 50" version="1.1" xmlns="http://www.w3.org/2000/svg" xmlns:xlink="http://www.w3.org/1999/xlink">
    <g id="Page-1" stroke="none" stroke-width="1" fill-rule="evenodd">
        <g id="DM_Logo_white_text">
            <g id="Group-5" fill-rule="nonzero">
                <path d="M14.5,39.0018007 L14.5,43 L10,43 L10,39.0148148 L10,39 C11.4267214,39 12.967475,39.0018007 14.5,39.0018007" id="Fill-1"></path>
                <path d="M14.4902734,35.6104758 L25.1180138,35.6104758 C28.1819006,35.6104758 35.7402397,35.5757966 35.7402397,24.9985908 C35.7402397,14.4227941 28.1513861,14.3616508 25.1180138,14.3616508 L15.5069325,14.3616508 C14.9125129,14.3575409 14.49444,14.8116787 14.495788,15.4158068 C14.495788,16.2935695 14.4902734,35.6104758 14.4902734,35.6104758 L14.4902734,35.6104758 Z M10.006973,35.5868866 C10.006973,35.5868866 9.99998775,15.6435497 9.99998775,14.3727973 C10.006973,11.940967 11.9152923,10.0008333 14.363865,10.0008333 L25.0166665,10.0008333 C28.1735674,10.0008333 40.0000123,10.0022425 40.0000123,25.0139084 C40.0000123,40.0269223 28.0805533,40.0005147 25.0166665,40.0005147 C25.0166665,40.0005147 19.8027343,39.9950003 14.4902734,39.9907726 C12.9610567,39.9907726 11.4236292,39.9894247 9.99998775,39.9894247 C7.61526263,39.9894247 5.54861116,39.9907726 4.37496783,39.9935911 C1.89306206,40.0005147 0,38.0117321 0,35.6257935 L0,10.0008333 C0,4.44285413 4.46387649,0 10.0027451,0 C15.6305223,0.00281844784 21.7374627,0.00281844784 24.9860908,0.00281844784 C28.2347189,0.00281844784 50,0.00281844784 50,24.9944244 C50,49.9860916 28.0805533,50 24.9860908,50 C21.8916895,50 15.0180268,49.9944244 14.3707889,49.9957723 C11.9152923,50 9.99998775,48.0098082 9.99998775,45.6252175 L9.99998775,42.9837192 L14.4902734,42.9837192 L14.4902734,44.5975256 C14.4902734,45.183579 14.9346941,45.6043242 15.4846901,45.6098999 C16.126352,45.6154755 21.9652797,45.6098999 25.091666,45.6098999 C28.216643,45.6098999 45.7472126,45.5474651 45.7472126,24.9958336 C45.7472126,4.44285413 28.1347196,4.35952611 25.1013473,4.35952611 C22.0694456,4.35952611 11.777732,4.37478249 10.1180629,4.35952611 C7.07359995,4.35952611 4.49028561,6.86071476 4.49028561,9.98551563 L4.49028561,34.5981016 C4.49028561,35.1244161 4.92220645,35.6104758 5.50277817,35.6104758 L10.006973,35.6104758 L10.006973,35.5868866 Z" id="Fill-3"></path>
            </g>
            <g id="DecorMatters" transform="translate(60.000000, 7.000000)" font-family="HelveticaNeue-Bold, Helvetica Neue" font-size="30" font-weight="bold">
                <text>
                    <tspan x="0.89" y="29">DecorMatters</tspan>
                </text>
            </g>
        </g>
        <text id="admin" font-family="Roboto-Thin, Roboto" font-size="28" font-weight="300">
            <tspan x="270" y="35">admin</tspan>
        </text>
    </g>
</svg>